<svg width="568" height="113" viewBox="0 0 568 113" fill="none" xmlns="http://www.w3.org/2000/svg">
<g clip-path="url(#clip0_736_4935)">
<rect width="568" height="113" fill="white"/>
<path d="M171.6 74H164.76L153.32 56.68V74H146.48V45.92H153.32L164.76 63.32V45.92H171.6V74ZM200.638 45.92L190.918 64.72V74H184.078V64.72L174.358 45.92H182.118L187.558 57.68L192.958 45.92H200.638ZM220.594 57.12V62.8H202.994V57.12H220.594ZM246.477 50.76H233.997V56.28C234.531 55.6933 235.277 55.2133 236.237 54.84C237.197 54.4667 238.237 54.28 239.357 54.28C241.357 54.28 243.011 54.7333 244.317 55.64C245.651 56.5467 246.624 57.72 247.237 59.16C247.851 60.6 248.157 62.16 248.157 63.84C248.157 66.96 247.277 69.44 245.517 71.28C243.757 73.0933 241.277 74 238.077 74C235.944 74 234.091 73.64 232.517 72.92C230.944 72.1733 229.731 71.1467 228.877 69.84C228.024 68.5333 227.557 67.0267 227.477 65.32H234.157C234.317 66.1467 234.704 66.84 235.317 67.4C235.931 67.9333 236.771 68.2 237.837 68.2C239.091 68.2 240.024 67.8 240.637 67C241.251 66.2 241.557 65.1333 241.557 63.8C241.557 62.4933 241.237 61.4933 240.597 60.8C239.957 60.1067 239.024 59.76 237.797 59.76C236.891 59.76 236.144 59.9867 235.557 60.44C234.971 60.8667 234.584 61.44 234.397 62.16H227.797V44.76H246.477V50.76ZM251.213 51.16V44.8H262.293V74H255.173V51.16H251.213ZM266.972 59C266.972 54.4133 267.852 50.8 269.612 48.16C271.399 45.52 274.265 44.2 278.212 44.2C282.159 44.2 285.012 45.52 286.772 48.16C288.559 50.8 289.452 54.4133 289.452 59C289.452 63.64 288.559 67.28 286.772 69.92C285.012 72.56 282.159 73.88 278.212 73.88C274.265 73.88 271.399 72.56 269.612 69.92C267.852 67.28 266.972 63.64 266.972 59ZM282.732 59C282.732 56.3067 282.439 54.24 281.852 52.8C281.265 51.3333 280.052 50.6 278.212 50.6C276.372 50.6 275.159 51.3333 274.572 52.8C273.985 54.24 273.692 56.3067 273.692 59C273.692 60.8133 273.799 62.32 274.012 63.52C274.225 64.6933 274.652 65.6533 275.292 66.4C275.959 67.12 276.932 67.48 278.212 67.48C279.492 67.48 280.452 67.12 281.092 66.4C281.759 65.6533 282.199 64.6933 282.412 63.52C282.625 62.32 282.732 60.8133 282.732 59Z" fill="black"/>
<path d="M318.251 66.2842C317.542 66.2842 316.903 66.4072 316.335 66.6533C315.772 66.8936 315.292 67.2451 314.894 67.708C314.501 68.165 314.199 68.7188 313.988 69.3691C313.777 70.0195 313.672 70.752 313.672 71.5664C313.672 72.6445 313.839 73.582 314.173 74.3789C314.513 75.1699 315.017 75.7822 315.685 76.2158C316.358 76.6494 317.199 76.8662 318.207 76.8662C318.781 76.8662 319.32 76.8193 319.824 76.7256C320.334 76.626 320.829 76.5029 321.31 76.3564V77.6572C320.841 77.833 320.349 77.9619 319.833 78.0439C319.317 78.1318 318.705 78.1758 317.996 78.1758C316.689 78.1758 315.597 77.9062 314.718 77.3672C313.845 76.8223 313.188 76.0547 312.749 75.0645C312.315 74.0742 312.099 72.9053 312.099 71.5576C312.099 70.585 312.233 69.6973 312.503 68.8945C312.778 68.0859 313.177 67.3887 313.698 66.8027C314.226 66.2168 314.87 65.7656 315.632 65.4492C316.399 65.127 317.278 64.9658 318.269 64.9658C318.919 64.9658 319.546 65.0303 320.149 65.1592C320.753 65.2881 321.298 65.4727 321.784 65.7129L321.187 66.9785C320.776 66.791 320.325 66.6299 319.833 66.4951C319.347 66.3545 318.819 66.2842 318.251 66.2842ZM337.58 71.5576C337.58 72.5479 337.454 73.4502 337.202 74.2646C336.95 75.0732 336.575 75.7705 336.077 76.3564C335.585 76.9365 334.973 77.3848 334.24 77.7012C333.508 78.0176 332.658 78.1758 331.692 78.1758C330.695 78.1758 329.825 78.0176 329.081 77.7012C328.343 77.3848 327.728 76.9336 327.236 76.3477C326.749 75.7617 326.383 75.0615 326.137 74.2471C325.897 73.4326 325.777 72.5303 325.777 71.54C325.777 70.2275 325.993 69.0762 326.427 68.0859C326.861 67.0957 327.517 66.3252 328.396 65.7744C329.28 65.2236 330.388 64.9482 331.718 64.9482C332.989 64.9482 334.059 65.2207 334.926 65.7656C335.799 66.3105 336.458 67.0781 336.903 68.0684C337.355 69.0527 337.58 70.2158 337.58 71.5576ZM327.35 71.5576C327.35 72.6475 327.505 73.5908 327.816 74.3877C328.126 75.1846 328.601 75.7998 329.239 76.2334C329.884 76.667 330.701 76.8838 331.692 76.8838C332.688 76.8838 333.502 76.667 334.135 76.2334C334.774 75.7998 335.245 75.1846 335.55 74.3877C335.855 73.5908 336.007 72.6475 336.007 71.5576C336.007 69.8994 335.658 68.6045 334.961 67.6729C334.27 66.7354 333.189 66.2666 331.718 66.2666C330.722 66.2666 329.902 66.4805 329.257 66.9082C328.612 67.3359 328.132 67.9453 327.816 68.7363C327.505 69.5215 327.35 70.4619 327.35 71.5576ZM352.831 78H351.109L344.104 67.207H344.034C344.051 67.4941 344.072 67.8223 344.095 68.1914C344.118 68.5547 344.136 68.9443 344.148 69.3604C344.165 69.7705 344.174 70.1895 344.174 70.6172V78H342.785V65.1504H344.499L351.478 75.9082H351.539C351.528 75.7031 351.513 75.4131 351.495 75.0381C351.478 74.6572 351.46 74.25 351.443 73.8164C351.431 73.377 351.425 72.9697 351.425 72.5947V65.1504H352.831V78ZM362.624 78H361.122V66.4688H357.079V65.1504H366.65V66.4688H362.624V78ZM370.932 78V65.1504H372.426V78H370.932ZM388.346 78H386.623L379.618 67.207H379.548C379.565 67.4941 379.586 67.8223 379.609 68.1914C379.633 68.5547 379.65 68.9443 379.662 69.3604C379.679 69.7705 379.688 70.1895 379.688 70.6172V78H378.3V65.1504H380.013L386.992 75.9082H387.054C387.042 75.7031 387.027 75.4131 387.01 75.0381C386.992 74.6572 386.974 74.25 386.957 73.8164C386.945 73.377 386.939 72.9697 386.939 72.5947V65.1504H388.346V78ZM403.913 65.1504V73.4648C403.913 74.373 403.728 75.1816 403.359 75.8906C402.996 76.5996 402.445 77.1592 401.707 77.5693C400.969 77.9736 400.043 78.1758 398.93 78.1758C397.342 78.1758 396.132 77.7451 395.3 76.8838C394.474 76.0225 394.061 74.8711 394.061 73.4297V65.1504H395.563V73.4736C395.563 74.5635 395.851 75.4043 396.425 75.9961C397.005 76.5879 397.869 76.8838 399.018 76.8838C399.803 76.8838 400.444 76.7432 400.942 76.4619C401.446 76.1748 401.818 75.7764 402.059 75.2666C402.305 74.751 402.428 74.1562 402.428 73.4824V65.1504H403.913ZM419.384 65.1504V73.4648C419.384 74.373 419.199 75.1816 418.83 75.8906C418.467 76.5996 417.916 77.1592 417.178 77.5693C416.44 77.9736 415.514 78.1758 414.401 78.1758C412.813 78.1758 411.603 77.7451 410.771 76.8838C409.944 76.0225 409.531 74.8711 409.531 73.4297V65.1504H411.034V73.4736C411.034 74.5635 411.321 75.4043 411.896 75.9961C412.476 76.5879 413.34 76.8838 414.488 76.8838C415.274 76.8838 415.915 76.7432 416.413 76.4619C416.917 76.1748 417.289 75.7764 417.529 75.2666C417.776 74.751 417.899 74.1562 417.899 73.4824V65.1504H419.384ZM430.785 78L426.47 66.627H426.4C426.423 66.8672 426.444 67.1602 426.461 67.5059C426.479 67.8516 426.493 68.2295 426.505 68.6396C426.517 69.0439 426.523 69.457 426.523 69.8789V78H425.134V65.1504H427.349L431.418 75.8379H431.48L435.611 65.1504H437.808V78H436.331V69.7734C436.331 69.3926 436.337 69.0117 436.349 68.6309C436.361 68.2441 436.375 67.8809 436.393 67.541C436.41 67.1953 436.428 66.8965 436.446 66.6445H436.375L432.007 78H430.785ZM461.824 71.5576C461.824 72.5479 461.698 73.4502 461.446 74.2646C461.194 75.0732 460.819 75.7705 460.321 76.3564C459.829 76.9365 459.216 77.3848 458.484 77.7012C457.752 78.0176 456.902 78.1758 455.935 78.1758C454.939 78.1758 454.069 78.0176 453.325 77.7012C452.587 77.3848 451.971 76.9336 451.479 76.3477C450.993 75.7617 450.627 75.0615 450.38 74.2471C450.14 73.4326 450.02 72.5303 450.02 71.54C450.02 70.2275 450.237 69.0762 450.671 68.0859C451.104 67.0957 451.76 66.3252 452.639 65.7744C453.524 65.2236 454.631 64.9482 455.962 64.9482C457.233 64.9482 458.302 65.2207 459.17 65.7656C460.043 66.3105 460.702 67.0781 461.147 68.0684C461.598 69.0527 461.824 70.2158 461.824 71.5576ZM451.593 71.5576C451.593 72.6475 451.749 73.5908 452.059 74.3877C452.37 75.1846 452.844 75.7998 453.483 76.2334C454.128 76.667 454.945 76.8838 455.935 76.8838C456.931 76.8838 457.746 76.667 458.379 76.2334C459.017 75.7998 459.489 75.1846 459.794 74.3877C460.098 73.5908 460.251 72.6475 460.251 71.5576C460.251 69.8994 459.902 68.6045 459.205 67.6729C458.513 66.7354 457.432 66.2666 455.962 66.2666C454.965 66.2666 454.145 66.4805 453.501 66.9082C452.856 67.3359 452.376 67.9453 452.059 68.7363C451.749 69.5215 451.593 70.4619 451.593 71.5576ZM468.523 78H467.029V65.1504H474.183V66.4688H468.523V71.1797H473.841V72.4893H468.523V78ZM491.177 66.2842C490.468 66.2842 489.829 66.4072 489.261 66.6533C488.698 66.8936 488.218 67.2451 487.819 67.708C487.427 68.165 487.125 68.7188 486.914 69.3691C486.703 70.0195 486.598 70.752 486.598 71.5664C486.598 72.6445 486.765 73.582 487.099 74.3789C487.439 75.1699 487.942 75.7822 488.61 76.2158C489.284 76.6494 490.125 76.8662 491.133 76.8662C491.707 76.8662 492.246 76.8193 492.75 76.7256C493.26 76.626 493.755 76.5029 494.235 76.3564V77.6572C493.767 77.833 493.274 77.9619 492.759 78.0439C492.243 78.1318 491.631 78.1758 490.922 78.1758C489.615 78.1758 488.523 77.9062 487.644 77.3672C486.771 76.8223 486.114 76.0547 485.675 75.0645C485.241 74.0742 485.024 72.9053 485.024 71.5576C485.024 70.585 485.159 69.6973 485.429 68.8945C485.704 68.0859 486.103 67.3887 486.624 66.8027C487.151 66.2168 487.796 65.7656 488.558 65.4492C489.325 65.127 490.204 64.9658 491.194 64.9658C491.845 64.9658 492.472 65.0303 493.075 65.1592C493.679 65.2881 494.224 65.4727 494.71 65.7129L494.112 66.9785C493.702 66.791 493.251 66.6299 492.759 66.4951C492.273 66.3545 491.745 66.2842 491.177 66.2842ZM507.421 78L505.839 73.9219H500.689L499.115 78H497.604L502.631 65.0977H503.976L508.968 78H507.421ZM505.391 72.5947L503.888 68.543C503.853 68.4375 503.794 68.2646 503.712 68.0244C503.636 67.7842 503.557 67.5352 503.475 67.2773C503.393 67.0195 503.325 66.8115 503.273 66.6533C503.214 66.8936 503.15 67.1338 503.079 67.374C503.015 67.6084 502.95 67.8281 502.886 68.0332C502.822 68.2324 502.766 68.4023 502.719 68.543L501.19 72.5947H505.391ZM516.564 65.1504C517.619 65.1504 518.489 65.2822 519.174 65.5459C519.866 65.8037 520.381 66.1992 520.721 66.7324C521.061 67.2656 521.231 67.9453 521.231 68.7715C521.231 69.4512 521.108 70.0195 520.862 70.4766C520.616 70.9277 520.293 71.2939 519.895 71.5752C519.496 71.8564 519.072 72.0732 518.621 72.2256L522.145 78H520.405L517.258 72.6387H514.586V78H513.092V65.1504H516.564ZM516.476 66.4424H514.586V71.373H516.625C517.674 71.373 518.445 71.1592 518.937 70.7314C519.435 70.3037 519.684 69.6738 519.684 68.8418C519.684 67.9688 519.42 67.3506 518.893 66.9873C518.371 66.624 517.566 66.4424 516.476 66.4424ZM533.696 78H526.542V65.1504H533.696V66.4688H528.036V70.626H533.371V71.9268H528.036V76.6816H533.696V78Z" fill="black"/>
<g filter="url(#filter0_i_736_4935)">
<path d="M127 83.0525L77.2559 52.0643L97.6428 37.3857L118.03 48.8024C120.476 50.4334 126.348 52.3905 127 60.2191V83.0525Z" fill="#FFD230" stroke="#FFD230"/>
<path d="M83.7796 29.2311L99.2737 38.2014L25.0653 84.6836V62.6656C24.7934 59.9474 25.2284 54.1845 29.1426 52.8798L69.9165 28.4155C72.363 26.7846 77.2558 23.5228 83.7796 29.2311Z" fill="#ED5F1E" stroke="#ED5F1E"/>
</g>
<path d="M315.194 41.364V54H312.116V41.364H315.194ZM329.215 41.364V43.83H325.867V54H322.789V43.83H319.441V41.364H329.215ZM344.403 41.364V54H341.325V48.798H336.537V54H333.459V41.364H336.537V46.314H341.325V41.364H344.403ZM357.191 51.768H352.475L351.719 54H348.497L353.069 41.364H356.633L361.205 54H357.947L357.191 51.768ZM356.399 49.392L354.833 44.766L353.285 49.392H356.399ZM364.775 47.664C364.775 46.416 365.045 45.306 365.585 44.334C366.125 43.35 366.875 42.588 367.835 42.048C368.807 41.496 369.905 41.22 371.129 41.22C372.629 41.22 373.913 41.616 374.981 42.408C376.049 43.2 376.763 44.28 377.123 45.648H373.739C373.487 45.12 373.127 44.718 372.659 44.442C372.203 44.166 371.681 44.028 371.093 44.028C370.145 44.028 369.377 44.358 368.789 45.018C368.201 45.678 367.907 46.56 367.907 47.664C367.907 48.768 368.201 49.65 368.789 50.31C369.377 50.97 370.145 51.3 371.093 51.3C371.681 51.3 372.203 51.162 372.659 50.886C373.127 50.61 373.487 50.208 373.739 49.68H377.123C376.763 51.048 376.049 52.128 374.981 52.92C373.913 53.7 372.629 54.09 371.129 54.09C369.905 54.09 368.807 53.82 367.835 53.28C366.875 52.728 366.125 51.966 365.585 50.994C365.045 50.022 364.775 48.912 364.775 47.664ZM389.574 51.768H384.858L384.102 54H380.88L385.452 41.364H389.016L393.588 54H390.33L389.574 51.768ZM388.782 49.392L387.216 44.766L385.668 49.392H388.782ZM411.052 36.9L406.228 57.366H403.258L408.082 36.9H411.052ZM430.654 41.364V43.83H427.306V54H424.228V43.83H420.88V41.364H430.654ZM440.875 54.126C439.687 54.126 438.595 53.85 437.599 53.298C436.615 52.746 435.829 51.978 435.241 50.994C434.665 49.998 434.377 48.882 434.377 47.646C434.377 46.41 434.665 45.3 435.241 44.316C435.829 43.332 436.615 42.564 437.599 42.012C438.595 41.46 439.687 41.184 440.875 41.184C442.063 41.184 443.149 41.46 444.133 42.012C445.129 42.564 445.909 43.332 446.473 44.316C447.049 45.3 447.337 46.41 447.337 47.646C447.337 48.882 447.049 49.998 446.473 50.994C445.897 51.978 445.117 52.746 444.133 53.298C443.149 53.85 442.063 54.126 440.875 54.126ZM440.875 51.318C441.883 51.318 442.687 50.982 443.287 50.31C443.899 49.638 444.205 48.75 444.205 47.646C444.205 46.53 443.899 45.642 443.287 44.982C442.687 44.31 441.883 43.974 440.875 43.974C439.855 43.974 439.039 44.304 438.427 44.964C437.827 45.624 437.527 46.518 437.527 47.646C437.527 48.762 437.827 49.656 438.427 50.328C439.039 50.988 439.855 51.318 440.875 51.318ZM466.06 41.364V54H462.982V46.422L460.156 54H457.672L454.828 46.404V54H451.75V41.364H455.386L458.932 50.112L462.442 41.364H466.06ZM480.603 45.432C480.603 46.164 480.435 46.836 480.099 47.448C479.763 48.048 479.247 48.534 478.551 48.906C477.855 49.278 476.991 49.464 475.959 49.464H474.051V54H470.973V41.364H475.959C476.967 41.364 477.819 41.538 478.515 41.886C479.211 42.234 479.733 42.714 480.081 43.326C480.429 43.938 480.603 44.64 480.603 45.432ZM475.725 47.016C476.313 47.016 476.751 46.878 477.039 46.602C477.327 46.326 477.471 45.936 477.471 45.432C477.471 44.928 477.327 44.538 477.039 44.262C476.751 43.986 476.313 43.848 475.725 43.848H474.051V47.016H475.725ZM492.231 54L487.983 48.42V54H484.905V41.364H487.983V46.908L492.195 41.364H495.813L490.917 47.556L495.993 54H492.231ZM503.234 41.364V54H500.156V41.364H503.234ZM519.469 54H516.391L511.243 46.206V54H508.165V41.364H511.243L516.391 49.194V41.364H519.469V54ZM528.972 54.126C528.048 54.126 527.22 53.976 526.488 53.676C525.756 53.376 525.168 52.932 524.724 52.344C524.292 51.756 524.064 51.048 524.04 50.22H527.316C527.364 50.688 527.526 51.048 527.802 51.3C528.078 51.54 528.438 51.66 528.882 51.66C529.338 51.66 529.698 51.558 529.962 51.354C530.226 51.138 530.358 50.844 530.358 50.472C530.358 50.16 530.25 49.902 530.034 49.698C529.83 49.494 529.572 49.326 529.26 49.194C528.96 49.062 528.528 48.912 527.964 48.744C527.148 48.492 526.482 48.24 525.966 47.988C525.45 47.736 525.006 47.364 524.634 46.872C524.262 46.38 524.076 45.738 524.076 44.946C524.076 43.77 524.502 42.852 525.354 42.192C526.206 41.52 527.316 41.184 528.684 41.184C530.076 41.184 531.198 41.52 532.05 42.192C532.902 42.852 533.358 43.776 533.418 44.964H530.088C530.064 44.556 529.914 44.238 529.638 44.01C529.362 43.77 529.008 43.65 528.576 43.65C528.204 43.65 527.904 43.752 527.676 43.956C527.448 44.148 527.334 44.43 527.334 44.802C527.334 45.21 527.526 45.528 527.91 45.756C528.294 45.984 528.894 46.23 529.71 46.494C530.526 46.77 531.186 47.034 531.69 47.286C532.206 47.538 532.65 47.904 533.022 48.384C533.394 48.864 533.58 49.482 533.58 50.238C533.58 50.958 533.394 51.612 533.022 52.2C532.662 52.788 532.134 53.256 531.438 53.604C530.742 53.952 529.92 54.126 528.972 54.126Z" fill="black"/>
</g>
<defs>
<filter id="filter0_i_736_4935" x="24.5" y="25.5" width="103" height="64.0869" filterUnits="userSpaceOnUse" color-interpolation-filters="sRGB">
<feFlood flood-opacity="0" result="BackgroundImageFix"/>
<feBlend mode="normal" in="SourceGraphic" in2="BackgroundImageFix" result="shape"/>
<feColorMatrix in="SourceAlpha" type="matrix" values="0 0 0 0 0 0 0 0 0 0 0 0 0 0 0 0 0 0 127 0" result="hardAlpha"/>
<feOffset dy="4"/>
<feGaussianBlur stdDeviation="2"/>
<feComposite in2="hardAlpha" operator="arithmetic" k2="-1" k3="1"/>
<feColorMatrix type="matrix" values="0 0 0 0 0 0 0 0 0 0 0 0 0 0 0 0 0 0 0.25 0"/>
<feBlend mode="normal" in2="shape" result="effect1_innerShadow_736_4935"/>
</filter>
<clipPath id="clip0_736_4935">
<rect width="568" height="113" fill="white"/>
</clipPath>
</defs>
</svg>
