<?xml version="1.0" encoding="UTF-8" standalone="no" ?>
<!DOCTYPE svg PUBLIC "-//W3C//DTD SVG 1.1//EN" "http://www.w3.org/Graphics/SVG/1.1/DTD/svg11.dtd">
<svg xmlns="http://www.w3.org/2000/svg" xmlns:xlink="http://www.w3.org/1999/xlink" version="1.1" width="640" height="480" viewBox="0 0 640 480" xml:space="preserve">
<desc>Created with Fabric.js 3.6.6</desc>
<defs>
</defs>
<g transform="matrix(1.18 0 0 1.18 323.88 55.62)"  >
<g style=""   >
		<g transform="matrix(1 0 0 1 0 0)" clip-path="url(#CLIPPATH_26)"  >
<clipPath id="CLIPPATH_26" >
	<rect transform="matrix(1 0 0 1 0 0)" x="-284" y="-56.5" rx="0" ry="0" width="568" height="113" />
</clipPath>
<rect style="stroke: none; stroke-width: 1; stroke-dasharray: none; stroke-linecap: butt; stroke-dashoffset: 0; stroke-linejoin: miter; stroke-miterlimit: 4; fill: rgb(255,255,255); fill-rule: nonzero; opacity: 1;"  x="-284" y="-56.5" rx="0" ry="0" width="568" height="113" />
</g>
		<g transform="matrix(1 0 0 1 -66.03 2.6)" clip-path="url(#CLIPPATH_27)"  >
<clipPath id="CLIPPATH_27" >
	<rect transform="matrix(1 0 0 1 66.03 -2.6)" x="-284" y="-56.5" rx="0" ry="0" width="568" height="113" />
</clipPath>
<path style="stroke: none; stroke-width: 1; stroke-dasharray: none; stroke-linecap: butt; stroke-dashoffset: 0; stroke-linejoin: miter; stroke-miterlimit: 4; fill: rgb(0,0,0); fill-rule: nonzero; opacity: 1;"  transform=" translate(-217.97, -59.1)" d="M 171.6 74 H 164.76 L 153.32 56.68 V 74 H 146.48 V 45.92 H 153.32 L 164.76 63.32 V 45.92 H 171.6 V 74 Z M 200.638 45.92 L 190.918 64.72 V 74 H 184.078 V 64.72 L 174.358 45.92 H 182.118 L 187.558 57.68 L 192.958 45.92 H 200.638 Z M 220.594 57.12 V 62.8 H 202.994 V 57.12 H 220.594 Z M 246.477 50.76 H 233.997 V 56.28 C 234.531 55.6933 235.277 55.2133 236.237 54.84 C 237.197 54.4667 238.237 54.28 239.357 54.28 C 241.357 54.28 243.011 54.7333 244.317 55.64 C 245.651 56.5467 246.624 57.72 247.237 59.16 C 247.851 60.6 248.157 62.16 248.157 63.84 C 248.157 66.96 247.277 69.44 245.517 71.28 C 243.757 73.0933 241.277 74 238.077 74 C 235.944 74 234.091 73.64 232.517 72.92 C 230.944 72.1733 229.731 71.1467 228.877 69.84 C 228.024 68.5333 227.557 67.0267 227.477 65.32 H 234.157 C 234.317 66.1467 234.704 66.84 235.317 67.4 C 235.931 67.9333 236.771 68.2 237.837 68.2 C 239.091 68.2 240.024 67.8 240.637 67 C 241.251 66.2 241.557 65.1333 241.557 63.8 C 241.557 62.4933 241.237 61.4933 240.597 60.8 C 239.957 60.1067 239.024 59.76 237.797 59.76 C 236.891 59.76 236.144 59.9867 235.557 60.44 C 234.971 60.8667 234.584 61.44 234.397 62.16 H 227.797 V 44.76 H 246.477 V 50.76 Z M 251.213 51.16 V 44.8 H 262.293 V 74 H 255.173 V 51.16 H 251.213 Z M 266.972 59 C 266.972 54.4133 267.852 50.8 269.612 48.16 C 271.399 45.52 274.265 44.2 278.212 44.2 C 282.159 44.2 285.012 45.52 286.772 48.16 C 288.559 50.8 289.452 54.4133 289.452 59 C 289.452 63.64 288.559 67.28 286.772 69.92 C 285.012 72.56 282.159 73.88 278.212 73.88 C 274.265 73.88 271.399 72.56 269.612 69.92 C 267.852 67.28 266.972 63.64 266.972 59 Z M 282.732 59 C 282.732 56.3067 282.439 54.24 281.852 52.8 C 281.265 51.3333 280.052 50.6 278.212 50.6 C 276.372 50.6 275.159 51.3333 274.572 52.8 C 273.985 54.24 273.692 56.3067 273.692 59 C 273.692 60.8133 273.799 62.32 274.012 63.52 C 274.225 64.6933 274.652 65.6533 275.292 66.4 C 275.959 67.12 276.932 67.48 278.212 67.48 C 279.492 67.48 280.452 67.12 281.092 66.4 C 281.759 65.6533 282.199 64.6933 282.412 63.52 C 282.625 62.32 282.732 60.8133 282.732 59 Z" stroke-linecap="round" />
</g>
		<g transform="matrix(1 0 0 1 138.9 15.06)" clip-path="url(#CLIPPATH_28)"  >
<clipPath id="CLIPPATH_28" >
	<rect transform="matrix(1 0 0 1 -138.9 -15.06)" x="-284" y="-56.5" rx="0" ry="0" width="568" height="113" />
</clipPath>
<path style="stroke: none; stroke-width: 1; stroke-dasharray: none; stroke-linecap: butt; stroke-dashoffset: 0; stroke-linejoin: miter; stroke-miterlimit: 4; fill: rgb(0,0,0); fill-rule: nonzero; opacity: 1;"  transform=" translate(-422.9, -71.56)" d="M 318.251 66.2842 C 317.542 66.2842 316.903 66.4072 316.335 66.6533 C 315.772 66.8936 315.292 67.2451 314.894 67.708 C 314.501 68.165 314.199 68.7188 313.988 69.3691 C 313.777 70.0195 313.672 70.752 313.672 71.5664 C 313.672 72.6445 313.839 73.582 314.173 74.3789 C 314.513 75.1699 315.017 75.7822 315.685 76.2158 C 316.358 76.6494 317.199 76.8662 318.207 76.8662 C 318.781 76.8662 319.32 76.8193 319.824 76.7256 C 320.334 76.626 320.829 76.5029 321.31 76.3564 V 77.6572 C 320.841 77.833 320.349 77.9619 319.833 78.0439 C 319.317 78.1318 318.705 78.1758 317.996 78.1758 C 316.689 78.1758 315.597 77.9062 314.718 77.3672 C 313.845 76.8223 313.188 76.0547 312.749 75.0645 C 312.315 74.0742 312.099 72.9053 312.099 71.5576 C 312.099 70.585 312.233 69.6973 312.503 68.8945 C 312.778 68.0859 313.177 67.3887 313.698 66.8027 C 314.226 66.2168 314.87 65.7656 315.632 65.4492 C 316.399 65.127 317.278 64.9658 318.269 64.9658 C 318.919 64.9658 319.546 65.0303 320.149 65.1592 C 320.753 65.2881 321.298 65.4727 321.784 65.7129 L 321.187 66.9785 C 320.776 66.791 320.325 66.6299 319.833 66.4951 C 319.347 66.3545 318.819 66.2842 318.251 66.2842 Z M 337.58 71.5576 C 337.58 72.5479 337.454 73.4502 337.202 74.2646 C 336.95 75.0732 336.575 75.7705 336.077 76.3564 C 335.585 76.9365 334.973 77.3848 334.24 77.7012 C 333.508 78.0176 332.658 78.1758 331.692 78.1758 C 330.695 78.1758 329.825 78.0176 329.081 77.7012 C 328.343 77.3848 327.728 76.9336 327.236 76.3477 C 326.749 75.7617 326.383 75.0615 326.137 74.2471 C 325.897 73.4326 325.777 72.5303 325.777 71.54 C 325.777 70.2275 325.993 69.0762 326.427 68.0859 C 326.861 67.0957 327.517 66.3252 328.396 65.7744 C 329.28 65.2236 330.388 64.9482 331.718 64.9482 C 332.989 64.9482 334.059 65.2207 334.926 65.7656 C 335.799 66.3105 336.458 67.0781 336.903 68.0684 C 337.355 69.0527 337.58 70.2158 337.58 71.5576 Z M 327.35 71.5576 C 327.35 72.6475 327.505 73.5908 327.816 74.3877 C 328.126 75.1846 328.601 75.7998 329.239 76.2334 C 329.884 76.667 330.701 76.8838 331.692 76.8838 C 332.688 76.8838 333.502 76.667 334.135 76.2334 C 334.774 75.7998 335.245 75.1846 335.55 74.3877 C 335.855 73.5908 336.007 72.6475 336.007 71.5576 C 336.007 69.8994 335.658 68.6045 334.961 67.6729 C 334.27 66.7354 333.189 66.2666 331.718 66.2666 C 330.722 66.2666 329.902 66.4805 329.257 66.9082 C 328.612 67.3359 328.132 67.9453 327.816 68.7363 C 327.505 69.5215 327.35 70.4619 327.35 71.5576 Z M 352.831 78 H 351.109 L 344.104 67.207 H 344.034 C 344.051 67.4941 344.072 67.8223 344.095 68.1914 C 344.118 68.5547 344.136 68.9443 344.148 69.3604 C 344.165 69.7705 344.174 70.1895 344.174 70.6172 V 78 H 342.785 V 65.1504 H 344.499 L 351.478 75.9082 H 351.539 C 351.528 75.7031 351.513 75.4131 351.495 75.0381 C 351.478 74.6572 351.46 74.25 351.443 73.8164 C 351.431 73.377 351.425 72.9697 351.425 72.5947 V 65.1504 H 352.831 V 78 Z M 362.624 78 H 361.122 V 66.4688 H 357.079 V 65.1504 H 366.65 V 66.4688 H 362.624 V 78 Z M 370.932 78 V 65.1504 H 372.426 V 78 H 370.932 Z M 388.346 78 H 386.623 L 379.618 67.207 H 379.548 C 379.565 67.4941 379.586 67.8223 379.609 68.1914 C 379.633 68.5547 379.65 68.9443 379.662 69.3604 C 379.679 69.7705 379.688 70.1895 379.688 70.6172 V 78 H 378.3 V 65.1504 H 380.013 L 386.992 75.9082 H 387.054 C 387.042 75.7031 387.027 75.4131 387.01 75.0381 C 386.992 74.6572 386.974 74.25 386.957 73.8164 C 386.945 73.377 386.939 72.9697 386.939 72.5947 V 65.1504 H 388.346 V 78 Z M 403.913 65.1504 V 73.4648 C 403.913 74.373 403.728 75.1816 403.359 75.8906 C 402.996 76.5996 402.445 77.1592 401.707 77.5693 C 400.969 77.9736 400.043 78.1758 398.93 78.1758 C 397.342 78.1758 396.132 77.7451 395.3 76.8838 C 394.474 76.0225 394.061 74.8711 394.061 73.4297 V 65.1504 H 395.563 V 73.4736 C 395.563 74.5635 395.851 75.4043 396.425 75.9961 C 397.005 76.5879 397.869 76.8838 399.018 76.8838 C 399.803 76.8838 400.444 76.7432 400.942 76.4619 C 401.446 76.1748 401.818 75.7764 402.059 75.2666 C 402.305 74.751 402.428 74.1562 402.428 73.4824 V 65.1504 H 403.913 Z M 419.384 65.1504 V 73.4648 C 419.384 74.373 419.199 75.1816 418.83 75.8906 C 418.467 76.5996 417.916 77.1592 417.178 77.5693 C 416.44 77.9736 415.514 78.1758 414.401 78.1758 C 412.813 78.1758 411.603 77.7451 410.771 76.8838 C 409.944 76.0225 409.531 74.8711 409.531 73.4297 V 65.1504 H 411.034 V 73.4736 C 411.034 74.5635 411.321 75.4043 411.896 75.9961 C 412.476 76.5879 413.34 76.8838 414.488 76.8838 C 415.274 76.8838 415.915 76.7432 416.413 76.4619 C 416.917 76.1748 417.289 75.7764 417.529 75.2666 C 417.776 74.751 417.899 74.1562 417.899 73.4824 V 65.1504 H 419.384 Z M 430.785 78 L 426.47 66.627 H 426.4 C 426.423 66.8672 426.444 67.1602 426.461 67.5059 C 426.479 67.8516 426.493 68.2295 426.505 68.6396 C 426.517 69.0439 426.523 69.457 426.523 69.8789 V 78 H 425.134 V 65.1504 H 427.349 L 431.418 75.8379 H 431.48 L 435.611 65.1504 H 437.808 V 78 H 436.331 V 69.7734 C 436.331 69.3926 436.337 69.0117 436.349 68.6309 C 436.361 68.2441 436.375 67.8809 436.393 67.541 C 436.41 67.1953 436.428 66.8965 436.446 66.6445 H 436.375 L 432.007 78 H 430.785 Z M 461.824 71.5576 C 461.824 72.5479 461.698 73.4502 461.446 74.2646 C 461.194 75.0732 460.819 75.7705 460.321 76.3564 C 459.829 76.9365 459.216 77.3848 458.484 77.7012 C 457.752 78.0176 456.902 78.1758 455.935 78.1758 C 454.939 78.1758 454.069 78.0176 453.325 77.7012 C 452.587 77.3848 451.971 76.9336 451.479 76.3477 C 450.993 75.7617 450.627 75.0615 450.38 74.2471 C 450.14 73.4326 450.02 72.5303 450.02 71.54 C 450.02 70.2275 450.237 69.0762 450.671 68.0859 C 451.104 67.0957 451.76 66.3252 452.639 65.7744 C 453.524 65.2236 454.631 64.9482 455.962 64.9482 C 457.233 64.9482 458.302 65.2207 459.17 65.7656 C 460.043 66.3105 460.702 67.0781 461.147 68.0684 C 461.598 69.0527 461.824 70.2158 461.824 71.5576 Z M 451.593 71.5576 C 451.593 72.6475 451.749 73.5908 452.059 74.3877 C 452.37 75.1846 452.844 75.7998 453.483 76.2334 C 454.128 76.667 454.945 76.8838 455.935 76.8838 C 456.931 76.8838 457.746 76.667 458.379 76.2334 C 459.017 75.7998 459.489 75.1846 459.794 74.3877 C 460.098 73.5908 460.251 72.6475 460.251 71.5576 C 460.251 69.8994 459.902 68.6045 459.205 67.6729 C 458.513 66.7354 457.432 66.2666 455.962 66.2666 C 454.965 66.2666 454.145 66.4805 453.501 66.9082 C 452.856 67.3359 452.376 67.9453 452.059 68.7363 C 451.749 69.5215 451.593 70.4619 451.593 71.5576 Z M 468.523 78 H 467.029 V 65.1504 H 474.183 V 66.4688 H 468.523 V 71.1797 H 473.841 V 72.4893 H 468.523 V 78 Z M 491.177 66.2842 C 490.468 66.2842 489.829 66.4072 489.261 66.6533 C 488.698 66.8936 488.218 67.2451 487.819 67.708 C 487.427 68.165 487.125 68.7188 486.914 69.3691 C 486.703 70.0195 486.598 70.752 486.598 71.5664 C 486.598 72.6445 486.765 73.582 487.099 74.3789 C 487.439 75.1699 487.942 75.7822 488.61 76.2158 C 489.284 76.6494 490.125 76.8662 491.133 76.8662 C 491.707 76.8662 492.246 76.8193 492.75 76.7256 C 493.26 76.626 493.755 76.5029 494.235 76.3564 V 77.6572 C 493.767 77.833 493.274 77.9619 492.759 78.0439 C 492.243 78.1318 491.631 78.1758 490.922 78.1758 C 489.615 78.1758 488.523 77.9062 487.644 77.3672 C 486.771 76.8223 486.114 76.0547 485.675 75.0645 C 485.241 74.0742 485.024 72.9053 485.024 71.5576 C 485.024 70.585 485.159 69.6973 485.429 68.8945 C 485.704 68.0859 486.103 67.3887 486.624 66.8027 C 487.151 66.2168 487.796 65.7656 488.558 65.4492 C 489.325 65.127 490.204 64.9658 491.194 64.9658 C 491.845 64.9658 492.472 65.0303 493.075 65.1592 C 493.679 65.2881 494.224 65.4727 494.71 65.7129 L 494.112 66.9785 C 493.702 66.791 493.251 66.6299 492.759 66.4951 C 492.273 66.3545 491.745 66.2842 491.177 66.2842 Z M 507.421 78 L 505.839 73.9219 H 500.689 L 499.115 78 H 497.604 L 502.631 65.0977 H 503.976 L 508.968 78 H 507.421 Z M 505.391 72.5947 L 503.888 68.543 C 503.853 68.4375 503.794 68.2646 503.712 68.0244 C 503.636 67.7842 503.557 67.5352 503.475 67.2773 C 503.393 67.0195 503.325 66.8115 503.273 66.6533 C 503.214 66.8936 503.15 67.1338 503.079 67.374 C 503.015 67.6084 502.95 67.8281 502.886 68.0332 C 502.822 68.2324 502.766 68.4023 502.719 68.543 L 501.19 72.5947 H 505.391 Z M 516.564 65.1504 C 517.619 65.1504 518.489 65.2822 519.174 65.5459 C 519.866 65.8037 520.381 66.1992 520.721 66.7324 C 521.061 67.2656 521.231 67.9453 521.231 68.7715 C 521.231 69.4512 521.108 70.0195 520.862 70.4766 C 520.616 70.9277 520.293 71.2939 519.895 71.5752 C 519.496 71.8564 519.072 72.0732 518.621 72.2256 L 522.145 78 H 520.405 L 517.258 72.6387 H 514.586 V 78 H 513.092 V 65.1504 H 516.564 Z M 516.476 66.4424 H 514.586 V 71.373 H 516.625 C 517.674 71.373 518.445 71.1592 518.937 70.7314 C 519.435 70.3037 519.684 69.6738 519.684 68.8418 C 519.684 67.9688 519.42 67.3506 518.893 66.9873 C 518.371 66.624 517.566 66.4424 516.476 66.4424 Z M 533.696 78 H 526.542 V 65.1504 H 533.696 V 66.4688 H 528.036 V 70.626 H 533.371 V 71.9268 H 528.036 V 76.6816 H 533.696 V 78 Z" stroke-linecap="round" />
</g>
		<g transform="matrix(1 0 0 1 -181.87 3.72)" clip-path="url(#CLIPPATH_29)"  >
<clipPath id="CLIPPATH_29" >
	<rect transform="matrix(1 0 0 1 181.87 -3.72)" x="-284" y="-56.5" rx="0" ry="0" width="568" height="113" />
</clipPath>
<path style="stroke: rgb(255,210,48); stroke-width: 1; stroke-dasharray: none; stroke-linecap: butt; stroke-dashoffset: 0; stroke-linejoin: miter; stroke-miterlimit: 4; fill: rgb(255,210,48); fill-rule: nonzero; opacity: 1;"  transform=" translate(-102.13, -60.22)" d="M 127 83.0525 L 77.2559 52.0643 L 97.6428 37.3857 L 118.03 48.8024 C 120.476 50.4334 126.348 52.3905 127 60.2191 V 83.0525 Z" stroke-linecap="round" />
</g>
		<g transform="matrix(1 0 0 1 -221.86 -1.16)" clip-path="url(#CLIPPATH_30)"  >
<clipPath id="CLIPPATH_30" >
	<rect transform="matrix(1 0 0 1 221.86 1.16)" x="-284" y="-56.5" rx="0" ry="0" width="568" height="113" />
</clipPath>
<path style="stroke: rgb(237,95,30); stroke-width: 1; stroke-dasharray: none; stroke-linecap: butt; stroke-dashoffset: 0; stroke-linejoin: miter; stroke-miterlimit: 4; fill: rgb(237,95,30); fill-rule: nonzero; opacity: 1;"  transform=" translate(-62.14, -55.34)" d="M 83.7796 29.2311 L 99.2737 38.2014 L 25.0653 84.6836 V 62.6656 C 24.7934 59.9474 25.2284 54.1845 29.1426 52.8798 L 69.9165 28.4155 C 72.363 26.7846 77.2558 23.5228 83.7796 29.2311 Z" stroke-linecap="round" />
</g>
		<g transform="matrix(1 0 0 1 138.85 -9.37)" clip-path="url(#CLIPPATH_31)"  >
<clipPath id="CLIPPATH_31" >
	<rect transform="matrix(1 0 0 1 -138.85 9.37)" x="-284" y="-56.5" rx="0" ry="0" width="568" height="113" />
</clipPath>
<path style="stroke: none; stroke-width: 1; stroke-dasharray: none; stroke-linecap: butt; stroke-dashoffset: 0; stroke-linejoin: miter; stroke-miterlimit: 4; fill: rgb(0,0,0); fill-rule: nonzero; opacity: 1;"  transform=" translate(-422.85, -47.13)" d="M 315.194 41.364 V 54 H 312.116 V 41.364 H 315.194 Z M 329.215 41.364 V 43.83 H 325.867 V 54 H 322.789 V 43.83 H 319.441 V 41.364 H 329.215 Z M 344.403 41.364 V 54 H 341.325 V 48.798 H 336.537 V 54 H 333.459 V 41.364 H 336.537 V 46.314 H 341.325 V 41.364 H 344.403 Z M 357.191 51.768 H 352.475 L 351.719 54 H 348.497 L 353.069 41.364 H 356.633 L 361.205 54 H 357.947 L 357.191 51.768 Z M 356.399 49.392 L 354.833 44.766 L 353.285 49.392 H 356.399 Z M 364.775 47.664 C 364.775 46.416 365.045 45.306 365.585 44.334 C 366.125 43.35 366.875 42.588 367.835 42.048 C 368.807 41.496 369.905 41.22 371.129 41.22 C 372.629 41.22 373.913 41.616 374.981 42.408 C 376.049 43.2 376.763 44.28 377.123 45.648 H 373.739 C 373.487 45.12 373.127 44.718 372.659 44.442 C 372.203 44.166 371.681 44.028 371.093 44.028 C 370.145 44.028 369.377 44.358 368.789 45.018 C 368.201 45.678 367.907 46.56 367.907 47.664 C 367.907 48.768 368.201 49.65 368.789 50.31 C 369.377 50.97 370.145 51.3 371.093 51.3 C 371.681 51.3 372.203 51.162 372.659 50.886 C 373.127 50.61 373.487 50.208 373.739 49.68 H 377.123 C 376.763 51.048 376.049 52.128 374.981 52.92 C 373.913 53.7 372.629 54.09 371.129 54.09 C 369.905 54.09 368.807 53.82 367.835 53.28 C 366.875 52.728 366.125 51.966 365.585 50.994 C 365.045 50.022 364.775 48.912 364.775 47.664 Z M 389.574 51.768 H 384.858 L 384.102 54 H 380.88 L 385.452 41.364 H 389.016 L 393.588 54 H 390.33 L 389.574 51.768 Z M 388.782 49.392 L 387.216 44.766 L 385.668 49.392 H 388.782 Z M 411.052 36.9 L 406.228 57.366 H 403.258 L 408.082 36.9 H 411.052 Z M 430.654 41.364 V 43.83 H 427.306 V 54 H 424.228 V 43.83 H 420.88 V 41.364 H 430.654 Z M 440.875 54.126 C 439.687 54.126 438.595 53.85 437.599 53.298 C 436.615 52.746 435.829 51.978 435.241 50.994 C 434.665 49.998 434.377 48.882 434.377 47.646 C 434.377 46.41 434.665 45.3 435.241 44.316 C 435.829 43.332 436.615 42.564 437.599 42.012 C 438.595 41.46 439.687 41.184 440.875 41.184 C 442.063 41.184 443.149 41.46 444.133 42.012 C 445.129 42.564 445.909 43.332 446.473 44.316 C 447.049 45.3 447.337 46.41 447.337 47.646 C 447.337 48.882 447.049 49.998 446.473 50.994 C 445.897 51.978 445.117 52.746 444.133 53.298 C 443.149 53.85 442.063 54.126 440.875 54.126 Z M 440.875 51.318 C 441.883 51.318 442.687 50.982 443.287 50.31 C 443.899 49.638 444.205 48.75 444.205 47.646 C 444.205 46.53 443.899 45.642 443.287 44.982 C 442.687 44.31 441.883 43.974 440.875 43.974 C 439.855 43.974 439.039 44.304 438.427 44.964 C 437.827 45.624 437.527 46.518 437.527 47.646 C 437.527 48.762 437.827 49.656 438.427 50.328 C 439.039 50.988 439.855 51.318 440.875 51.318 Z M 466.06 41.364 V 54 H 462.982 V 46.422 L 460.156 54 H 457.672 L 454.828 46.404 V 54 H 451.75 V 41.364 H 455.386 L 458.932 50.112 L 462.442 41.364 H 466.06 Z M 480.603 45.432 C 480.603 46.164 480.435 46.836 480.099 47.448 C 479.763 48.048 479.247 48.534 478.551 48.906 C 477.855 49.278 476.991 49.464 475.959 49.464 H 474.051 V 54 H 470.973 V 41.364 H 475.959 C 476.967 41.364 477.819 41.538 478.515 41.886 C 479.211 42.234 479.733 42.714 480.081 43.326 C 480.429 43.938 480.603 44.64 480.603 45.432 Z M 475.725 47.016 C 476.313 47.016 476.751 46.878 477.039 46.602 C 477.327 46.326 477.471 45.936 477.471 45.432 C 477.471 44.928 477.327 44.538 477.039 44.262 C 476.751 43.986 476.313 43.848 475.725 43.848 H 474.051 V 47.016 H 475.725 Z M 492.231 54 L 487.983 48.42 V 54 H 484.905 V 41.364 H 487.983 V 46.908 L 492.195 41.364 H 495.813 L 490.917 47.556 L 495.993 54 H 492.231 Z M 503.234 41.364 V 54 H 500.156 V 41.364 H 503.234 Z M 519.469 54 H 516.391 L 511.243 46.206 V 54 H 508.165 V 41.364 H 511.243 L 516.391 49.194 V 41.364 H 519.469 V 54 Z M 528.972 54.126 C 528.048 54.126 527.22 53.976 526.488 53.676 C 525.756 53.376 525.168 52.932 524.724 52.344 C 524.292 51.756 524.064 51.048 524.04 50.22 H 527.316 C 527.364 50.688 527.526 51.048 527.802 51.3 C 528.078 51.54 528.438 51.66 528.882 51.66 C 529.338 51.66 529.698 51.558 529.962 51.354 C 530.226 51.138 530.358 50.844 530.358 50.472 C 530.358 50.16 530.25 49.902 530.034 49.698 C 529.83 49.494 529.572 49.326 529.26 49.194 C 528.96 49.062 528.528 48.912 527.964 48.744 C 527.148 48.492 526.482 48.24 525.966 47.988 C 525.45 47.736 525.006 47.364 524.634 46.872 C 524.262 46.38 524.076 45.738 524.076 44.946 C 524.076 43.77 524.502 42.852 525.354 42.192 C 526.206 41.52 527.316 41.184 528.684 41.184 C 530.076 41.184 531.198 41.52 532.05 42.192 C 532.902 42.852 533.358 43.776 533.418 44.964 H 530.088 C 530.064 44.556 529.914 44.238 529.638 44.01 C 529.362 43.77 529.008 43.65 528.576 43.65 C 528.204 43.65 527.904 43.752 527.676 43.956 C 527.448 44.148 527.334 44.43 527.334 44.802 C 527.334 45.21 527.526 45.528 527.91 45.756 C 528.294 45.984 528.894 46.23 529.71 46.494 C 530.526 46.77 531.186 47.034 531.69 47.286 C 532.206 47.538 532.65 47.904 533.022 48.384 C 533.394 48.864 533.58 49.482 533.58 50.238 C 533.58 50.958 533.394 51.612 533.022 52.2 C 532.662 52.788 532.134 53.256 531.438 53.604 C 530.742 53.952 529.92 54.126 528.972 54.126 Z" stroke-linecap="round" />
</g>
</g>
</g>
</svg>